<svg xmlns="http://www.w3.org/2000/svg" width="15.27" height="11.998" viewBox="0 0 15.27 11.998">
  <path id="iconfinder_f0e0_213132" d="M15.27,387.869v6.766A1.367,1.367,0,0,1,13.907,396H1.363a1.313,1.313,0,0,1-.963-.4,1.313,1.313,0,0,1-.4-.963v-6.766a4.519,4.519,0,0,0,.861.741q3.085,2.1,4.235,2.94.486.358.788.558a4.869,4.869,0,0,0,.805.409,2.456,2.456,0,0,0,.937.209h.017a2.456,2.456,0,0,0,.937-.209,4.869,4.869,0,0,0,.805-.409q.3-.2.788-.558,1.449-1.048,4.244-2.94A4.7,4.7,0,0,0,15.27,387.869Zm0-2.505a2.252,2.252,0,0,1-.418,1.287,4.051,4.051,0,0,1-1.04,1.048l-3.988,2.769q-.085.06-.362.26t-.46.324q-.183.124-.443.277a2.581,2.581,0,0,1-.49.23,1.354,1.354,0,0,1-.426.077H7.626a1.354,1.354,0,0,1-.426-.077,2.581,2.581,0,0,1-.49-.23q-.26-.153-.443-.277t-.46-.324q-.277-.2-.362-.26-.775-.545-2.233-1.555T1.466,387.7a4.231,4.231,0,0,1-1-.984A1.99,1.99,0,0,1,0,385.551a1.72,1.72,0,0,1,.354-1.108A1.217,1.217,0,0,1,1.363,384H13.907a1.375,1.375,0,0,1,1.363,1.363Z" transform="translate(0 -384)" fill="#fff" opacity="0.4"/>
</svg>
