<svg xmlns="http://www.w3.org/2000/svg" width="14.789" height="14.134" viewBox="0 0 14.789 14.134">
  <path id="iconfinder_f0e1_213133" d="M3.36,280.592v9.541H.183v-9.541Zm.2-2.946a1.524,1.524,0,0,1-.486,1.175,1.814,1.814,0,0,1-1.3.472H1.752a1.738,1.738,0,0,1-1.271-.472A1.578,1.578,0,0,1,0,277.646a1.551,1.551,0,0,1,.5-1.179A1.812,1.812,0,0,1,1.791,276a1.761,1.761,0,0,1,1.281.467A1.606,1.606,0,0,1,3.562,277.646Zm11.226,7.019v5.469H11.621v-5.1a2.785,2.785,0,0,0-.39-1.584,1.37,1.37,0,0,0-1.218-.573A1.559,1.559,0,0,0,9,283.207a2.048,2.048,0,0,0-.611.823,2.328,2.328,0,0,0-.106.78v5.324H5.112q.019-3.842.019-6.229t-.01-2.85l-.01-.462H8.28v1.387H8.261a4.19,4.19,0,0,1,.395-.539,4.106,4.106,0,0,1,.544-.5,2.5,2.5,0,0,1,.838-.419,3.817,3.817,0,0,1,1.1-.149,3.42,3.42,0,0,1,2.648,1.093A4.584,4.584,0,0,1,14.789,284.665Z" transform="translate(0 -276)" fill="#fff" opacity="0.4"/>
</svg>
